<svg xmlns="http://www.w3.org/2000/svg" viewBox="0 0 64 64" width="64" height="64">
  <rect x="0" y="0" width="64" height="64" rx="13" fill="#1A1A1A"/>
  <rect x="5" y="26" width="54" height="12" fill="#2A2A2A"/>
  <circle cx="12" cy="26" r="9" fill="#2A2A2A"/>
  <circle cx="22" cy="21" r="9" fill="#2A2A2A"/>
  <circle cx="32" cy="18" r="10" fill="#2A2A2A"/>
  <circle cx="42" cy="21" r="9" fill="#2A2A2A"/>
  <circle cx="52" cy="26" r="9" fill="#2A2A2A"/>
  <polyline points="7,34 13,45 19,35 25,45 32,29 39,45 45,35 51,45 57,34"
    fill="none" stroke="#FFFFFF" stroke-width="3" stroke-linecap="round" stroke-linejoin="round"/>
  <line x1="10" y1="45" x2="11" y2="55" stroke="#C9A96E" stroke-width="1.8" stroke-linecap="round"/>
  <line x1="17" y1="45" x2="18" y2="57" stroke="#C9A96E" stroke-width="2" stroke-linecap="round"/>
  <line x1="25" y1="45" x2="26" y2="59" stroke="#C9A96E" stroke-width="2" stroke-linecap="round"/>
  <line x1="32" y1="45" x2="33" y2="60" stroke="#C9A96E" stroke-width="2.2" stroke-linecap="round"/>
  <line x1="39" y1="45" x2="40" y2="59" stroke="#C9A96E" stroke-width="2" stroke-linecap="round"/>
  <line x1="47" y1="45" x2="48" y2="57" stroke="#C9A96E" stroke-width="2" stroke-linecap="round"/>
  <line x1="54" y1="45" x2="55" y2="55" stroke="#C9A96E" stroke-width="1.8" stroke-linecap="round"/>
</svg>
